# Blender 3.5.1
# www.blender.org
mtllib box.mtl
o Cube
v -2.148412 -0.995000 3.444483
v -2.159208 -0.995000 3.427260
v -2.148412 -1.000000 3.427260
v -2.020056 -0.835291 3.265399
v -2.009260 -0.835291 3.282621
v -2.009260 -0.840291 3.265399
v -2.148412 0.995000 3.444483
v -2.147557 1.000000 3.430930
v -2.159208 0.995000 3.427260
v -2.159208 -0.995000 -3.427260
v -2.148412 -0.995000 -3.444483
v -2.148412 -1.000000 -3.427260
v -2.020056 -0.835291 -3.265399
v -2.009260 -0.840291 -3.265399
v -2.009260 -0.835291 -3.282621
v -2.159208 0.995000 -3.427260
v -2.147590 1.000000 -3.427260
v -2.148412 0.995000 -3.444483
v 2.148412 -1.000000 3.427260
v 2.159208 -0.995000 3.427260
v 2.148412 -0.995000 3.444483
v 2.009260 -0.840291 3.265399
v 2.009260 -0.835291 3.282621
v 2.020056 -0.835291 3.265399
v 2.148412 0.995000 3.444483
v 2.159208 0.995000 3.427260
v 2.147557 1.000000 3.430930
v 2.159208 -0.995000 -3.427260
v 2.148412 -1.000000 -3.427260
v 2.148412 -0.995000 -3.444483
v 2.009260 -0.840291 -3.265399
v 2.020056 -0.835291 -3.265399
v 2.009260 -0.835291 -3.282621
v 2.159208 0.995000 -3.427260
v 2.148412 0.995000 -3.444483
v 2.147590 1.000000 -3.427260
v 2.031675 1.000000 -3.299844
v 2.009260 0.995000 -3.282621
v 2.020056 0.995000 -3.265399
v -2.031675 1.000000 -3.299844
v -2.020056 0.995000 -3.265399
v -2.009260 0.995000 -3.282621
v -2.009260 0.995000 3.282621
v -2.020056 0.995000 3.265399
v -2.031708 1.000000 3.296174
v 2.009260 0.995000 3.282621
v 2.031708 1.000000 3.296174
v 2.020056 0.995000 3.265399
vn -0.0000 -1.0000 -0.0000
vn -0.0000 -0.0000 1.0000
vn -1.0000 -0.0000 -0.0000
vn -0.0000 1.0000 -0.0000
vn -0.0000 -0.0000 -1.0000
vn 1.0000 -0.0000 -0.0000
vn -0.4064 -0.8775 0.2547
vn 0.4064 0.8775 -0.2547
vn -0.4522 0.8457 0.2834
vn -0.4064 -0.8775 -0.2547
vn 0.4064 0.8775 0.2547
vn -0.3837 0.8916 -0.2405
vn 0.4064 -0.8775 0.2547
vn -0.4064 0.8775 -0.2547
vn 0.4522 0.8457 0.2834
vn 0.4064 -0.8775 -0.2547
vn -0.4064 0.8775 0.2547
vn 0.3837 0.8916 -0.2405
vn -0.1482 0.9846 0.0929
vn 0.1482 0.9846 0.0929
vn 0.1587 0.9823 -0.0995
vn -0.1587 0.9823 -0.0995
vn 0.8473 -0.0000 -0.5311
vn -0.8473 -0.0000 0.5311
vn -0.4203 -0.9074 -0.0000
vn 0.4202 0.9074 -0.0000
vn -0.3948 0.9188 -0.0000
vn -0.0000 -0.9603 0.2788
vn -0.0000 0.9603 -0.2788
vn 0.8473 -0.0000 0.5311
vn -0.0000 -0.9603 -0.2788
vn -0.0000 0.9603 0.2788
vn -0.0000 0.9382 -0.3461
vn -0.8473 -0.0000 -0.5311
vn 0.4203 -0.9074 -0.0000
vn -0.4202 0.9074 -0.0000
vn 0.3948 0.9188 -0.0000
vn -0.0000 0.9382 0.3461
vt 0.375625 0.000000
vt 0.125625 0.750000
vt 0.375625 0.999375
vt 0.375625 0.000625
vt 0.125000 0.749375
vt 0.375000 0.000625
vt 0.125625 0.749375
vt 0.125000 0.749344
vt 0.375668 0.000656
vt 0.375668 0.999332
vt 0.125668 0.750000
vt 0.375668 0.000000
vt 0.375000 0.000656
vt 0.125668 0.749344
vt 0.624375 0.000000
vt 0.624375 0.999375
vt 0.874326 0.749508
vt 0.625000 0.000492
vt 0.625000 0.999326
vt 0.624375 1.000000
vt 0.624375 0.000625
vt 0.125000 0.500625
vt 0.375625 0.249375
vt 0.375625 0.250000
vt 0.125625 0.500000
vt 0.375625 0.250625
vt 0.375000 0.249375
vt 0.125625 0.500625
vt 0.125000 0.500656
vt 0.375668 0.249344
vt 0.125668 0.500656
vt 0.125668 0.500000
vt 0.375668 0.250668
vt 0.624375 0.249375
vt 0.874327 0.500625
vt 0.625000 0.249375
vt 0.625000 0.250673
vt 0.624375 0.250000
vt 0.624375 0.250625
vt 0.374375 0.749375
vt 0.375000 0.749375
vt 0.375625 0.749375
vt 0.374375 0.750000
vt 0.375625 0.750625
vt 0.374332 0.749344
vt 0.374332 0.750000
vt 0.375668 0.750668
vt 0.375000 0.749344
vt 0.375668 0.749344
vt 0.624375 0.750625
vt 0.624375 0.750000
vt 0.624375 0.749375
vt 0.625674 0.749508
vt 0.625000 0.750674
vt 0.375000 0.500625
vt 0.375625 0.500625
vt 0.374375 0.500625
vt 0.375625 0.499375
vt 0.374375 0.500000
vt 0.374332 0.500656
vt 0.375000 0.500656
vt 0.375668 0.500656
vt 0.374332 0.500000
vt 0.375668 0.499332
vt 0.624375 0.500000
vt 0.624375 0.500625
vt 0.624375 0.499375
vt 0.625000 0.499327
vt 0.625673 0.500625
vt 0.632383 0.505249
vt 0.633681 0.505874
vt 0.620214 0.499332
vt 0.620214 0.500656
vt 0.633056 0.506499
vt 0.867617 0.505249
vt 0.620214 0.249344
vt 0.866944 0.506499
vt 0.866319 0.505874
vt 0.620214 0.250668
vt 0.620215 0.999332
vt 0.866319 0.744126
vt 0.620214 0.000000
vt 0.866944 0.743501
vt 0.620214 0.000656
vt 0.620883 0.000000
vt 0.867619 0.744618
vt 0.633681 0.744126
vt 0.620214 0.750668
vt 0.632381 0.744618
vt 0.633056 0.744126
vt 0.620214 0.749344
vt 0.633056 0.743501
s 0
f 12/28/1 29/57/1 19/40/1 3/7/1
f 42/79/2 15/33/2 33/64/2 38/72/2
f 32/62/3 24/49/3 48/91/3 39/73/3
f 2/4/3 9/21/3 16/34/3 10/23/3
f 14/31/4 6/14/4 22/45/4 31/60/4
f 11/26/5 18/39/5 35/67/5 30/58/5
f 45/86/4 8/17/4 27/53/4 47/89/4
f 47/89/4 27/53/4 36/69/4 17/35/4 8/17/4 45/86/4 40/75/4 37/70/4
f 28/56/6 34/66/6 26/52/6 20/42/6
f 44/84/6 4/9/6 13/30/6 41/76/6
f 23/47/5 5/10/5 43/80/5 46/88/5
f 1/1/7 2/4/7 3/6/7
f 4/9/8 5/12/8 6/13/8
f 7/16/9 8/19/9 9/20/9
f 10/23/10 11/24/10 12/27/10
f 13/29/11 14/31/11 15/32/11
f 16/34/12 17/36/12 18/38/12
f 19/40/13 20/41/13 21/43/13
f 22/45/14 23/46/14 24/48/14
f 25/50/15 26/51/15 27/54/15
f 28/55/16 29/57/16 30/59/16
f 31/60/17 32/61/17 33/63/17
f 34/65/18 35/67/18 36/68/18
f 37/70/19 38/71/19 39/74/19
f 40/75/20 41/77/20 42/78/20
f 43/82/21 44/84/21 45/85/21
f 46/87/22 47/89/22 48/90/22
f 30/58/23 35/67/23 34/66/23 28/56/23
f 1/1/24 7/15/24 9/21/24 2/4/24
f 2/5/25 10/22/25 12/28/25 3/7/25
f 6/14/26 14/31/26 13/29/26 4/8/26
f 8/18/27 17/36/27 16/34/27 9/21/27
f 3/7/28 19/40/28 21/43/28 1/2/28
f 5/11/29 23/46/29 22/45/29 6/14/29
f 20/42/30 26/52/30 25/50/30 21/44/30
f 11/25/31 30/59/31 29/57/31 12/28/31
f 14/31/32 31/60/32 33/63/32 15/32/32
f 17/37/29 36/68/29 35/67/29 18/39/29
f 37/70/32 40/75/32 42/78/32 38/71/32
f 45/86/33 47/89/33 46/87/33 43/81/33
f 32/62/24 39/73/24 38/72/24 33/64/24
f 23/47/34 46/88/34 48/91/34 24/49/34
f 19/40/35 29/57/35 28/56/35 20/42/35
f 15/33/30 42/79/30 41/76/30 13/30/30
f 24/49/36 32/62/36 31/60/36 22/45/36
f 39/74/27 48/92/27 47/89/27 37/70/27
f 40/75/37 45/86/37 44/83/37 41/77/37
f 10/23/34 16/34/34 18/39/34 11/26/34
f 26/52/37 34/66/37 36/69/37 27/53/37
f 7/16/38 25/50/38 27/54/38 8/19/38
f 4/9/23 44/84/23 43/82/23 5/12/23
f 21/44/2 25/50/2 7/16/2 1/3/2
o Cube.002
v -1.959311 -0.798873 3.209201
v -1.959311 -0.642895 3.209201
v -1.959311 -0.798873 -3.220105
v -1.959311 -0.642895 -3.220105
v 1.959311 -0.798873 3.209201
v 1.959311 -0.642895 3.209201
v 1.959311 -0.798873 -3.220105
v 1.959311 -0.642895 -3.220105
vn -1.0000 -0.0000 -0.0000
vn -0.0000 -0.0000 -1.0000
vn 1.0000 -0.0000 -0.0000
vn -0.0000 -0.0000 1.0000
vn -0.0000 -1.0000 -0.0000
vn -0.0000 1.0000 -0.0000
vt 0.375000 0.000000
vt 0.375000 1.000000
vt 0.125000 0.750000
vt 0.625000 0.000000
vt 0.625000 1.000000
vt 0.875000 0.750000
vt 0.375000 0.250000
vt 0.125000 0.500000
vt 0.625000 0.250000
vt 0.875000 0.500000
vt 0.375000 0.750000
vt 0.625000 0.750000
vt 0.375000 0.500000
vt 0.625000 0.500000
s 0
usemtl Material.001
f 49/93/39 50/96/39 52/101/39 51/99/39
f 51/99/40 52/101/40 56/106/40 55/105/40
f 55/105/41 56/106/41 54/104/41 53/103/41
f 53/103/42 54/104/42 50/97/42 49/94/42
f 51/100/43 55/105/43 53/103/43 49/95/43
f 56/106/44 52/102/44 50/98/44 54/104/44
