# Blender 3.5.1
# www.blender.org
mtllib cube.mtl
o Cube
v -0.986467 -1.002297 0.986467
v -0.986467 -0.986467 1.002297
v -1.002297 -0.986467 0.986467
v -0.986467 0.986467 1.002297
v -0.986467 1.002297 0.986467
v -1.002297 0.986467 0.986467
v -0.986467 -1.002297 -0.986467
v -1.002297 -0.986467 -0.986467
v -0.986467 -0.986467 -1.002297
v -0.986467 1.002297 -0.986467
v -0.986467 0.986467 -1.002297
v -1.002297 0.986467 -0.986467
v 0.986467 -1.002297 0.986467
v 1.002297 -0.986467 0.986467
v 0.986467 -0.986467 1.002297
v 0.986467 1.002297 0.986467
v 0.986467 0.986467 1.002297
v 1.002297 0.986467 0.986467
v 0.986467 -1.002297 -0.986467
v 0.986467 -0.986467 -1.002297
v 1.002297 -0.986467 -0.986467
v 0.986467 1.002297 -0.986467
v 1.002297 0.986467 -0.986467
v 0.986467 0.986467 -1.002297
v -0.989716 -1.000000 -0.989716
v -0.989716 -1.000000 0.989716
v -1.000000 -0.989716 0.989716
v -1.000000 -0.989716 -0.989716
v -0.989716 -0.989716 1.000000
v -0.989716 0.989716 1.000000
v -1.000000 0.989716 0.989716
v -0.989716 1.000000 0.989716
v -0.989716 1.000000 -0.989716
v -1.000000 0.989716 -0.989716
v -0.989716 0.989716 -1.000000
v -0.989716 -0.989716 -1.000000
v 0.989716 -1.000000 -0.989716
v 0.989716 -0.989716 -1.000000
v 0.989716 1.000000 -0.989716
v 0.989716 0.989716 -1.000000
v 1.000000 0.989716 -0.989716
v 1.000000 -0.989716 -0.989716
v 0.989716 -1.000000 0.989716
v 1.000000 -0.989716 0.989716
v 0.989716 1.000000 0.989716
v 1.000000 0.989716 0.989716
v 0.989716 0.989716 1.000000
v 0.989716 -0.989716 1.000000
vn -0.0000 -0.0000 1.0000
vn 1.0000 -0.0000 -0.0000
vn -0.0000 1.0000 -0.0000
vn -1.0000 -0.0000 -0.0000
vn -0.0000 -0.0000 -1.0000
vn -0.5774 -0.5774 0.5774
vn -0.5774 0.5774 0.5774
vn -0.5774 -0.5774 -0.5774
vn -0.5774 0.5774 -0.5774
vn 0.5774 -0.5774 0.5774
vn 0.5774 0.5774 0.5774
vn 0.5774 -0.5774 -0.5774
vn 0.5774 0.5774 -0.5774
vn -0.7071 -0.7071 -0.0000
vn -0.7071 -0.0000 0.7071
vn -0.7071 0.7071 -0.0000
vn -0.7071 -0.0000 -0.7071
vn -0.0000 -0.7071 -0.7071
vn -0.0000 0.7071 -0.7071
vn 0.7071 -0.0000 -0.7071
vn 0.7071 -0.7071 -0.0000
vn 0.7071 0.7071 -0.0000
vn 0.7071 -0.0000 0.7071
vn -0.0000 -0.7071 0.7071
vn -0.0000 0.7071 0.7071
vn -0.0000 -1.0000 -0.0000
vn -0.5772 -0.8166 -0.0000
vn -0.8166 -0.5772 -0.0000
vn -0.5772 -0.0000 0.8166
vn -0.8166 -0.0000 0.5772
vn -0.5772 0.8166 -0.0000
vn -0.8166 0.5772 -0.0000
vn -0.5772 -0.0000 -0.8166
vn -0.8166 -0.0000 -0.5772
vn -0.0000 -0.8166 -0.5772
vn -0.0000 -0.5772 -0.8166
vn -0.0000 0.8166 -0.5772
vn -0.0000 0.5772 -0.8166
vn 0.8166 -0.0000 -0.5772
vn 0.5772 -0.0000 -0.8166
vn 0.5772 -0.8166 -0.0000
vn 0.8166 -0.5772 -0.0000
vn 0.5772 0.8166 -0.0000
vn 0.8166 0.5772 -0.0000
vn 0.5772 -0.0000 0.8166
vn 0.8166 -0.0000 0.5772
vn -0.0000 -0.8166 0.5772
vn -0.0000 -0.5772 0.8166
vn -0.0000 0.8166 0.5772
vn -0.0000 0.5772 0.8166
vt 0.126974 0.748026
vt 0.376974 0.998026
vt 0.376974 0.001974
vt 0.623026 0.998026
vt 0.873026 0.748026
vt 0.623026 0.001974
vt 0.126974 0.501974
vt 0.376974 0.248026
vt 0.376974 0.251974
vt 0.873026 0.501974
vt 0.623026 0.251974
vt 0.623026 0.248026
vt 0.373026 0.748026
vt 0.376974 0.748026
vt 0.376974 0.751974
vt 0.626974 0.748026
vt 0.623026 0.751974
vt 0.623026 0.748026
vt 0.373026 0.501974
vt 0.376974 0.498026
vt 0.376974 0.501974
vt 0.626974 0.501974
vt 0.623026 0.501974
vt 0.623026 0.498026
vt 0.126285 0.501285
vt 0.126285 0.748715
vt 0.125000 0.748715
vt 0.376285 0.001285
vt 0.125000 0.501285
vt 0.376285 0.248715
vt 0.376285 0.000000
vt 0.126285 0.750000
vt 0.376285 0.998715
vt 0.623715 0.000000
vt 0.623715 0.998715
vt 0.623715 1.000000
vt 0.623715 0.001285
vt 0.625000 0.001285
vt 0.625000 0.998715
vt 0.873715 0.748715
vt 0.625000 0.248715
vt 0.625000 0.251285
vt 0.873714 0.501285
vt 0.623715 0.250000
vt 0.623715 0.248715
vt 0.623715 0.251285
vt 0.126285 0.500000
vt 0.376285 0.251285
vt 0.373715 0.501285
vt 0.373715 0.500000
vt 0.376285 0.498715
vt 0.625000 0.501285
vt 0.625000 0.498715
vt 0.626285 0.501285
vt 0.623715 0.500000
vt 0.623715 0.498715
vt 0.623715 0.501285
vt 0.375000 0.501285
vt 0.376285 0.501285
vt 0.373715 0.748715
vt 0.375000 0.748715
vt 0.376285 0.748715
vt 0.625000 0.751285
vt 0.626285 0.748715
vt 0.623715 0.750000
vt 0.623715 0.748715
vt 0.623715 0.751285
vt 0.373715 0.750000
vt 0.376285 0.751285
s 0
f 15/15/1 17/17/1 4/4/1 2/2/1
f 21/21/2 23/23/2 18/18/2 14/14/2
f 22/22/3 10/10/3 5/5/3 16/16/3
f 3/3/4 6/6/4 12/12/4 8/8/4
f 9/9/5 11/11/5 24/24/5 20/20/5
f 26/26/6 29/32/6 27/27/6
f 30/35/7 32/39/7 31/36/7
f 25/25/8 28/29/8 36/47/8
f 33/42/9 35/46/9 34/44/9
f 43/60/10 44/61/10 48/68/10
f 45/63/11 47/67/11 46/65/11
f 37/49/12 38/50/12 42/58/12
f 39/52/13 41/57/13 40/55/13
f 25/25/14 26/26/14 27/27/14 28/29/14
f 29/31/15 30/34/15 31/37/15 27/28/15
f 32/38/16 33/41/16 34/45/16 31/37/16
f 35/46/17 36/48/17 28/30/17 34/45/17
f 37/49/18 25/25/18 36/47/18 38/50/18
f 33/42/19 39/53/19 40/56/19 35/46/19
f 41/57/20 42/59/20 38/51/20 40/56/20
f 43/60/21 37/49/21 42/59/21 44/62/21
f 39/54/22 45/64/22 46/66/22 41/57/22
f 47/67/23 48/69/23 44/62/23 46/66/23
f 26/26/24 43/60/24 48/68/24 29/32/24
f 45/63/25 32/39/25 30/35/25 47/67/25
f 7/7/26 19/19/26 13/13/26 1/1/26
f 7/7/27 1/1/27 26/26/27 25/25/27
f 3/3/28 8/8/28 28/30/28 27/28/28
f 2/2/29 4/4/29 30/35/29 29/33/29
f 6/6/30 3/3/30 27/28/30 31/37/30
f 5/5/31 10/10/31 33/43/31 32/40/31
f 12/12/32 6/6/32 31/37/32 34/45/32
f 11/11/33 9/9/33 36/48/33 35/46/33
f 8/8/34 12/12/34 34/45/34 28/30/34
f 19/19/35 7/7/35 25/25/35 37/49/35
f 9/9/36 20/20/36 38/51/36 36/48/36
f 10/10/37 22/22/37 39/54/37 33/43/37
f 24/24/38 11/11/38 35/46/38 40/56/38
f 23/23/39 21/21/39 42/59/39 41/57/39
f 20/20/40 24/24/40 40/56/40 38/51/40
f 13/13/41 19/19/41 37/49/41 43/60/41
f 21/21/42 14/14/42 44/62/42 42/59/42
f 22/22/43 16/16/43 45/64/43 39/54/43
f 18/18/44 23/23/44 41/57/44 46/66/44
f 17/17/45 15/15/45 48/69/45 47/67/45
f 14/14/46 18/18/46 46/66/46 44/62/46
f 1/1/47 13/13/47 43/60/47 26/26/47
f 15/15/48 2/2/48 29/33/48 48/69/48
f 16/16/49 5/5/49 32/40/49 45/64/49
f 4/4/50 17/17/50 47/67/50 30/35/50
